<?xml version="1.0" encoding="utf-8"?>
<!-- Generator: Adobe Illustrator 24.0.0, SVG Export Plug-In . SVG Version: 6.00 Build 0)  -->
<svg version="1.1" id="Layer_1" xmlns="http://www.w3.org/2000/svg" xmlns:xlink="http://www.w3.org/1999/xlink" x="0px" y="0px"
	 viewBox="0 0 80 50" style="enable-background:new 0 0 80 50;" xml:space="preserve">
<style type="text/css">
	.st0{fill:#126E57;}
	.st1{fill:#FFFFFF;}
	.st2{fill:#002907;}
</style>
<path class="st0" d="M71.57,0H8.43C3.77,0,0,3.77,0,8.43v18.85c0,4.65,3.77,8.43,8.43,8.43h13.04c0.02,3.15-0.41,12.73-6.1,13.21
	c0,0,19.22,1.95,21.56-13.21h34.64c4.65,0,8.43-3.77,8.43-8.43V8.43C80,3.77,76.23,0,71.57,0z"/>
<g>
	<path class="st1" d="M13.1,16.26H9.07v-2.69c0-0.78-0.04-1.27-0.13-1.47c-0.09-0.19-0.28-0.29-0.57-0.29
		c-0.33,0-0.54,0.12-0.63,0.35c-0.09,0.24-0.13,0.75-0.13,1.53v7.19c0,0.75,0.04,1.24,0.13,1.47c0.09,0.23,0.29,0.34,0.6,0.34
		c0.3,0,0.5-0.12,0.59-0.35c0.09-0.23,0.14-0.77,0.14-1.62v-1.95h4.03v0.6c0,1.6-0.11,2.74-0.34,3.41c-0.23,0.67-0.73,1.26-1.5,1.76
		s-1.73,0.76-2.87,0.76c-1.18,0-2.15-0.21-2.92-0.64c-0.77-0.43-1.27-1.02-1.52-1.77c-0.25-0.76-0.37-1.89-0.37-3.41v-4.52
		c0-1.12,0.04-1.95,0.11-2.51s0.3-1.1,0.68-1.61c0.38-0.52,0.91-0.92,1.58-1.22c0.67-0.3,1.45-0.44,2.32-0.44
		c1.19,0,2.17,0.23,2.94,0.69c0.77,0.46,1.28,1.03,1.52,1.71s0.36,1.75,0.36,3.2V16.26z"/>
	<path class="st1" d="M18.41,9.51V25h-3.98V9.51H18.41z"/>
	<path class="st1" d="M23.77,9.51v2.02h-3.98V9.51H23.77z M23.77,12.3V25h-3.98V12.3H23.77z"/>
	<path class="st1" d="M33.7,17.1h-3.65v-1.46c0-0.51-0.04-0.86-0.12-1.04c-0.08-0.18-0.24-0.27-0.46-0.27
		c-0.22,0-0.37,0.08-0.45,0.24c-0.08,0.16-0.11,0.52-0.11,1.07v5.99c0,0.45,0.06,0.79,0.17,1.02c0.11,0.23,0.28,0.34,0.51,0.34
		c0.26,0,0.44-0.12,0.53-0.35s0.14-0.68,0.14-1.34v-1.51h3.45c-0.01,1.01-0.04,1.77-0.11,2.28c-0.07,0.51-0.28,1.03-0.64,1.56
		c-0.36,0.53-0.83,0.93-1.41,1.21c-0.58,0.27-1.3,0.41-2.15,0.41c-1.09,0-1.96-0.19-2.59-0.56s-1.09-0.9-1.35-1.57
		s-0.4-1.63-0.4-2.87v-3.61c0-1.08,0.11-1.89,0.33-2.44c0.22-0.55,0.68-1.04,1.39-1.47c0.71-0.43,1.57-0.65,2.58-0.65
		c1.01,0,1.87,0.21,2.58,0.64c0.71,0.43,1.19,0.97,1.43,1.62S33.7,15.91,33.7,17.1z"/>
	<path class="st1" d="M43.17,12.3l-1.57,5.06L43.64,25h-3.72l-1.21-5.53l0,5.53h-3.87V9.51h3.87l0,6.5l1.21-3.71H43.17z"/>
	<path class="st1" d="M60.21,9.51V25h-3.52l0-10.46L55.29,25h-2.5l-1.48-10.22l0,10.22h-3.52V9.51H53c0.15,0.93,0.31,2.03,0.48,3.29
		l0.57,3.94l0.92-7.23H60.21z"/>
	<path class="st1" d="M70.47,18.88h-5v2.75c0,0.57,0.04,0.94,0.12,1.11c0.08,0.17,0.24,0.25,0.48,0.25c0.29,0,0.49-0.11,0.59-0.33
		s0.15-0.65,0.15-1.28V19.7h3.66v0.94c0,0.78-0.05,1.39-0.15,1.81s-0.33,0.87-0.69,1.35c-0.36,0.48-0.82,0.84-1.38,1.08
		c-0.56,0.24-1.26,0.36-2.1,0.36c-0.82,0-1.54-0.12-2.16-0.35s-1.11-0.56-1.46-0.97c-0.35-0.41-0.59-0.86-0.72-1.36
		c-0.13-0.49-0.2-1.21-0.2-2.16v-3.7c0-1.11,0.15-1.99,0.45-2.63c0.3-0.64,0.79-1.13,1.47-1.47c0.68-0.34,1.47-0.51,2.35-0.51
		c1.08,0,1.98,0.21,2.68,0.62c0.7,0.41,1.2,0.96,1.48,1.64s0.43,1.63,0.43,2.87V18.88z M66.59,16.81v-0.93
		c0-0.66-0.04-1.08-0.11-1.27s-0.21-0.29-0.43-0.29c-0.27,0-0.43,0.08-0.5,0.24c-0.06,0.16-0.1,0.6-0.1,1.32v0.93H66.59z"/>
	<path class="st1" d="M75.98,9.51l-0.63,11.66h-2.98L71.73,9.51H75.98z M75.66,21.9V25h-3.62v-3.1H75.66z"/>
</g>
<path class="st1" d="M28.83,4.89H9.72C8.77,4.89,8,4.12,8,3.17v0c0-0.95,0.77-1.72,1.72-1.72h19.11c0.95,0,1.72,0.77,1.72,1.72v0
	C30.56,4.12,29.78,4.89,28.83,4.89z"/>
<circle class="st1" cx="33.72" cy="3.17" r="1.39"/>
<path class="st2" d="M15.37,48.92c0,0,16-0.81,16.96-14.21l2.78-3.93h37.74c0,0,6.99-0.56,7.07-3.39c0,0-0.14,7.39-7.81,8.17H38.22
	C38.22,35.56,36.3,49.72,15.37,48.92z"/>
</svg>
