<?xml version="1.0" encoding="utf-8"?>
<!-- Generator: Adobe Illustrator 24.0.0, SVG Export Plug-In . SVG Version: 6.00 Build 0)  -->
<svg version="1.1" id="Layer_1" xmlns="http://www.w3.org/2000/svg" xmlns:xlink="http://www.w3.org/1999/xlink" x="0px" y="0px"
	 viewBox="0 0 80 30" style="enable-background:new 0 0 80 30;" xml:space="preserve">
<style type="text/css">
	.st0{fill:#FFFFFF;}
</style>
<g>
	<g>
		<path class="st0" d="M10.41,6.02c0.21,0,0.4,0.06,0.57,0.18c0.17,0.12,0.25,0.26,0.25,0.41c-0.02,1.37-0.24,3.19-0.66,5.53
			c-0.42,2.34-1.08,4.16-1.96,5.48c-0.88,1.32-2.06,2.2-3.52,2.59c-1.12,0.3-2.28,0.26-3.48-0.2C0.4,19.55-0.2,19-0.2,18.42
			c0-0.61,0.33-0.99,1-1.14c0.21-0.05,0.5,0.07,0.88,0.35c1.24,0.93,2.39,1.21,3.44,0.96c0.92-0.22,1.67-0.83,2.25-1.8
			c0.58-0.97,1.05-2.47,1.43-4.48c0.37-2.01,0.57-3.85,0.59-5.57c0-0.18,0.12-0.34,0.35-0.49C9.97,6.09,10.19,6.02,10.41,6.02z"/>
		<path class="st0" d="M24.03,8.83c0.01-0.64-0.23-1.02-0.7-1.16c-0.47-0.14-1.07-0.2-1.78-0.19c-1.46,0.02-2.79,0.25-3.98,0.71
			c-1.19,0.46-1.8,1.01-1.8,1.63c-0.01,0.44,0.25,0.81,0.78,1.1c0.52,0.29,1.67,0.56,3.44,0.83c1.72,0.25,2.94,0.55,3.67,0.88
			c0.73,0.33,1.09,0.75,1.09,1.27c0,0.52-0.52,1.11-1.55,1.79c-1.03,0.69-2.26,1.28-3.71,1.79c-1.44,0.51-2.67,0.87-3.67,1.04
			c-0.84,0.14-1.47,0.18-1.9,0.11c-0.43-0.07-0.64-0.23-0.64-0.46c0-0.16,0.07-0.37,0.2-0.63c0.13-0.26,0.26-0.39,0.39-0.42
			c0.14-0.02,0.28-0.03,0.42-0.01c0.73,0.1,1.47,0.09,2.19-0.02c1.31-0.19,2.7-0.65,4.18-1.34c1.48-0.69,2.22-1.23,2.22-1.69
			c0-0.2-0.22-0.37-0.66-0.53c-0.45-0.15-1.57-0.37-3.38-0.64c-2.24-0.34-3.61-0.74-4.12-1.22c-0.51-0.47-0.76-1.01-0.75-1.59
			c0.01-1.12,0.85-2.06,2.51-2.75c1.66-0.69,3.38-1.01,5.18-1.02c1.19,0,2.11,0.13,2.75,0.41c0.64,0.28,0.96,0.58,0.95,0.92
			c0,0.16-0.08,0.4-0.22,0.71C24.99,8.65,24.62,8.81,24.03,8.83z"/>
		<path class="st0" d="M41.15,5.86c0.26,0,0.49,0.07,0.69,0.2c0.2,0.13,0.3,0.3,0.3,0.51c0,0.34-0.14,1.1-0.43,2.25
			c-0.36,1.41-0.61,2.9-0.74,4.49c-0.14,1.59-0.21,2.58-0.2,2.98c0,0.22-0.14,0.43-0.43,0.62c-0.29,0.19-0.54,0.28-0.75,0.27
			c-0.23-0.02-0.45-0.09-0.65-0.23c-0.2-0.14-0.31-0.3-0.31-0.49c0-0.17,0.1-0.77,0.31-1.79c0.17-0.87,0.26-1.5,0.26-1.89
			c0-0.23-0.05-0.39-0.15-0.47c-0.1-0.09-0.26-0.14-0.49-0.15c-0.35-0.01-1.03-0.01-2.04,0.02c-1.1,0.04-1.78,0.06-2.05,0.06
			c-0.28,0-1.01,0.02-2.17,0.08c-1.16,0.06-1.81,0.12-1.93,0.17c-0.12,0.05-0.25,0.35-0.38,0.93c-0.13,0.57-0.21,1.05-0.24,1.43
			c-0.04,0.65-0.15,1.19-0.33,1.61c-0.19,0.43-0.43,0.65-0.72,0.66c-0.2,0.01-0.45-0.09-0.75-0.29c-0.3-0.2-0.44-0.41-0.44-0.62
			c0-0.19,0.09-0.51,0.26-0.98c0.23-0.63,0.52-1.76,0.85-3.36c0.33-1.61,0.61-3.27,0.86-4.99c0.01-0.11,0.11-0.23,0.28-0.34
			c0.17-0.12,0.36-0.18,0.55-0.18c0.68,0,1.01,0.33,1.01,0.98c0,0.39-0.13,1.01-0.38,1.86c-0.22,0.77-0.33,1.33-0.34,1.68
			c0,0.14,0.07,0.25,0.21,0.31c0.14,0.06,0.47,0.09,0.99,0.09c1.14,0,2.67-0.06,4.59-0.15c1.92-0.09,2.96-0.23,3.1-0.46
			c0.15-0.23,0.29-0.76,0.44-1.59c0.15-0.83,0.22-1.71,0.21-2.62c0-0.1,0.1-0.23,0.32-0.37C40.67,5.93,40.9,5.86,41.15,5.86z"/>
		<path class="st0" d="M46.05,15.31c0.08,0.01,0.15,0.02,0.23,0.02c0.12,0.01,0.27,0.07,0.45,0.18c0.17,0.11,0.26,0.24,0.26,0.39
			c0,0.31-0.07,0.52-0.21,0.64c-0.14,0.12-0.38,0.25-0.7,0.38c-0.32,0.13-0.55,0.19-0.68,0.17c-0.29-0.04-0.51-0.11-0.65-0.22
			c-0.14-0.11-0.21-0.37-0.22-0.8c0-0.39,0.02-0.62,0.09-0.69c0.06-0.07,0.21-0.11,0.45-0.13C45.32,15.26,45.64,15.27,46.05,15.31z"
			/>
		<path class="st0" d="M51.45,8.63c-0.39-0.12-0.59-0.41-0.6-0.85c0-0.35,0.9-0.66,2.72-0.98c1.82-0.32,3.4-0.49,4.76-0.48
			c1.5,0.01,2.69,0.3,3.58,0.91c0.88,0.6,1.32,1.43,1.33,2.42c0,1.47-0.82,2.71-2.48,3.58c-1.66,0.88-3.89,1.28-6.72,1.34
			c-0.75,0.02-1.17,0.06-1.26,0.13c-0.09,0.07-0.16,0.55-0.2,1.44c-0.04,0.89-0.06,1.51-0.05,1.86c0,0.25-0.09,0.45-0.29,0.61
			c-0.19,0.16-0.42,0.21-0.68,0.16c-0.61-0.12-0.91-0.49-0.92-1.12c0-0.35,0.11-1.29,0.33-2.85c0.22-1.56,0.45-3.13,0.67-4.72
			c0.02-0.08,0.02-0.31,0.01-0.7C51.63,8.98,51.57,8.74,51.45,8.63z M53.6,8.24c-0.05,0.16-0.09,0.46-0.13,0.89
			c-0.09,0.77-0.2,1.62-0.33,2.53c-0.07,0.48-0.14,1-0.2,1.56c2.26,0.01,4.25-0.25,5.99-0.89c1.74-0.64,2.61-1.54,2.6-2.61
			c-0.01-1.32-1.1-2.02-3.27-2.08C56.84,7.6,55.28,7.82,53.6,8.24z"/>
		<path class="st0" d="M64.14,18.56c0.07,0.02,0.15,0.04,0.22,0.06c0.12,0.03,0.27,0.13,0.44,0.29c0.17,0.16,0.25,0.35,0.25,0.56
			c0,0.41-0.07,0.7-0.21,0.85c-0.14,0.15-0.37,0.29-0.68,0.43c-0.31,0.14-0.53,0.18-0.66,0.14c-0.28-0.09-0.49-0.21-0.63-0.37
			c-0.14-0.16-0.2-0.52-0.21-1.08c0-0.52,0.03-0.82,0.09-0.9c0.06-0.08,0.21-0.12,0.44-0.12C63.43,18.41,63.75,18.46,64.14,18.56z"
			/>
	</g>
	<path class="st0" d="M68.69,6.37c0-3.08,10.98,4.66,10.98,4.66V2.98H68.69h-1.01V20.7c-1.49,0.24-2.63,1.53-2.63,3.09
		c0,1.73,1.4,3.13,3.13,3.13c1.73,0,3.13-1.4,3.13-3.13c0-1.56-1.14-2.85-2.63-3.09v-8.58c2.18-1.15,5.49,4.97,5.49,4.97v-5.21
		c-1.78,2.73-5.49-1.86-5.49-1.86V7.2V6.37z"/>
</g>
</svg>
